<?xml version="1.0" encoding="UTF-8"?>
<svg width="570px" height="160px" viewBox="0 0 570 160" version="1.1" xmlns="http://www.w3.org/2000/svg" xmlns:xlink="http://www.w3.org/1999/xlink">
    <!-- Generator: Sketch 57.1 (83088) - https://sketch.com -->
    <title>Logo_FangYu</title>
    <desc>Created with Sketch.</desc>
    <defs>
        <linearGradient x1="78.6228297%" y1="1.14708534%" x2="69.2031637%" y2="99.1076938%" id="linearGradient-1">
            <stop stop-color="#72D7FF" offset="0%"></stop>
            <stop stop-color="#2C94F0" offset="100%"></stop>
        </linearGradient>
        <linearGradient x1="74.8380098%" y1="100%" x2="14.4498014%" y2="42.6015731%" id="linearGradient-2">
            <stop stop-color="#72D7FF" offset="0%"></stop>
            <stop stop-color="#2C94F0" offset="100%"></stop>
        </linearGradient>
        <linearGradient x1="0%" y1="49.172909%" x2="84.5082962%" y2="26.3409672%" id="linearGradient-3">
            <stop stop-color="#72D7FF" offset="0%"></stop>
            <stop stop-color="#2C94F0" offset="100%"></stop>
        </linearGradient>
    </defs>
    <g id="Page-1" stroke="none" stroke-width="1" fill="none" fill-rule="evenodd">
        <g id="Logo_Blue_Gradient" transform="translate(-330.000000, -310.000000)">
            <g id="Logo_FangYu" transform="translate(330.000000, 310.000000)">
                <path d="M423.554255,50 C431.809574,50 439.809574,53.1489362 445.511702,58.1702128 L441.596809,63.106383 C436.745745,58.7659574 430.192553,56.212766 423.554255,56.212766 C409.937234,56.212766 399.043617,66.7659574 399.043617,79.9574468 C399.043617,93.2340426 410.02234,103.787234 423.639362,103.787234 C429.001064,103.787234 434.703191,101.914894 439.298936,98.7659574 L439.298936,80.6382979 L445.341489,80.6382979 L445.341489,102.255319 C439.469149,106.93617 431.21383,110 423.21383,110 C405.937234,110 392.15,96.7234043 392.15,79.9574468 C392.15,63.1914894 406.02234,50 423.554255,50 Z M526.802721,50.1702128 L526.802721,85.2340426 C526.802721,96.9787234 533.77551,103.787234 545.085034,103.787234 C556.394558,103.787234 563.197279,96.9787234 563.197279,85.2340426 L563.197279,50.1702128 L570,50.1702128 L570,85.2340426 C570,100.808511 560.646259,110 545.085034,110 C529.438776,110 520,100.808511 520,85.2340426 L520,50.1702128 L526.802721,50.1702128 Z M247.87234,50.1702128 L247.87234,56.4680851 L216.808511,56.4680851 L216.808511,77.8297872 L244.638298,77.8297872 L244.638298,84.0425532 L216.808511,84.0425532 L216.808511,109.744681 L210,109.744681 L210,50.1702128 L247.87234,50.1702128 Z M289.287234,50.1702128 L315.925532,109.744681 L308.521277,109.744681 L301.797872,94.5106383 L269.37234,94.5106383 L262.734043,109.744681 L255.5,109.744681 L282.223404,50.1702128 L289.287234,50.1702128 Z M335.86383,50.1702128 L371.608511,98.5957447 L371.608511,50.1702128 L378.331915,50.1702128 L378.331915,109.744681 L371.353191,109.744681 L335.608511,61.4042553 L335.608511,109.744681 L328.8,109.744681 L328.8,50.1702128 L335.86383,50.1702128 Z M463.16383,50.1702128 L482.482979,81.4042553 L501.546809,50.1702128 L508.525532,50.1702128 L485.887234,89.0638298 L485.887234,109.744681 L479.16383,109.744681 L479.16383,89.2340426 L456.1,50.1702128 L463.16383,50.1702128 Z M285.542553,57.5744681 L272.180851,88.212766 L299.074468,88.212766 L285.542553,57.5744681 Z" id="FANGYU" fill="#FFFFFF" fill-rule="nonzero"></path>
                <g id="Logo_Spacing">
                    <path d="M36.2497714,55.75 C29.2152922,68.4504463 28.0485537,83.5813583 33.0527994,97.2101058 C38.0570451,110.838853 48.7380593,121.619471 62.3197714,126.75 C40.8443836,123.784731 20.4814803,115.386238 3.15977143,102.35 C-4.62506053,75.4581952 2.19899957,46.4533227 21.1573333,25.8534597 C40.115667,5.25359679 68.455444,-3.9500692 95.8997714,1.58 C71.2507983,12.7041595 50.6657723,31.2100664 36.9897714,54.54 L36.2497714,55.75 Z" id="Path" fill="url(#linearGradient-1)"></path>
                    <path d="M160.000081,80 C160.027551,99.3694361 152.99956,118.085861 140.23,132.65 C140.623333,128.55 140.82,124.4 140.82,120.2 C140.857711,97.40614 134.872401,75.0069379 123.47,55.27 L123.47,55.19 L123.47,55.19 L123.35,54.99 L122.96,54.32 C115.511585,41.8542279 103.011618,33.24249 88.7101827,30.7239016 C74.4087469,28.2053132 59.7188597,32.028717 48.46,41.2 C61.826825,24.1672125 79.284974,10.7923784 99.21,2.32 C134.924776,11.154489 160.009493,43.2087874 160.000081,80 Z" id="Path" fill="url(#linearGradient-2)"></path>
                    <path d="M138.820045,120.152084 C138.824163,125.16267 138.537012,130.169263 137.96,135.146541 C118.638739,155.449754 90.0959771,164.162373 62.7244052,158.112048 C35.3528334,152.061724 13.1461422,132.131239 4.19,105.577472 C26.2701982,121.462762 52.7959106,129.990105 80,129.948462 C94.7029397,129.930697 108.654672,123.452567 118.152619,112.233268 C127.650567,101.013969 131.734279,86.1880194 129.32,71.69 C135.083169,85.7629919 138.276976,100.754455 138.75,115.953636 L138.820045,120.152084 Z" id="Path" fill="url(#linearGradient-3)"></path>
                </g>
            </g>
        </g>
    </g>
</svg>